<svg xmlns="http://www.w3.org/2000/svg" width="14" height="16" viewBox="0 0 14 16">
  <metadata><?xpacket begin="﻿" id="W5M0MpCehiHzreSzNTczkc9d"?>
<x:xmpmeta xmlns:x="adobe:ns:meta/" x:xmptk="Adobe XMP Core 5.6-c138 79.159824, 2016/09/14-01:09:01        ">
   <rdf:RDF xmlns:rdf="http://www.w3.org/1999/02/22-rdf-syntax-ns#">
      <rdf:Description rdf:about=""/>
   </rdf:RDF>
</x:xmpmeta>
                                                                                                    
                                                                                                    
                                                                                                    
                                                                                                    
                                                                                                    
                                                                                                    
                                                                                                    
                                                                                                    
                                                                                                    
                                                                                                    
                                                                                                    
                                                                                                    
                                                                                                    
                                                                                                    
                                                                                                    
                                                                                                    
                                                                                                    
                                                                                                    
                                                                                                    
                                                                                                    
                           
<?xpacket end="w"?></metadata>
<defs>
    <style>
      .cls-1 {
        fill: #555963;
        fill-rule: evenodd;
      }
    </style>
  </defs>
  <path class="cls-1" d="M1288,439h-12a0.945,0.945,0,0,0-1,1v14a1,1,0,0,0,1,1,0.9,0.9,0,0,0,.5-0.1l5-2.9a1.3,1.3,0,0,1,1,0l5,2.9a0.9,0.9,0,0,0,.5.1,1,1,0,0,0,1-1V440a0.945,0.945,0,0,0-1-1h0Zm-1,2v2h-10v-2h10Zm-3.5,9.3a3.013,3.013,0,0,0-3,0l-3.5,2V445h10v7.3l-3.5-2h0Z" transform="translate(-1275 -439)"/>
</svg>
