<svg id="Logo" xmlns="http://www.w3.org/2000/svg" width="211" height="56.969"><defs><style>.cls-3{fill:#fff;fill-rule:evenodd;stroke:#45474b;stroke-width:2px}</style></defs><text id="All_about_literature" data-name="All about literature" x="165.692" y="15.891" text-anchor="middle" fill="#45474b" font-size="11" font-family="Lato">All about literature</text><text id="Bookworm" x="134.936" y="37.299" font-size="29" font-family="Rozha One" text-anchor="middle" fill="#45474b">Bookworm</text><path id="Line" class="cls-3" d="M451 81h148" transform="translate(-390 -35.031)"/><g id="Book"><ellipse cx="21.969" cy="34.969" rx="21.969" ry="22" fill="#45474b"/><path d="M411.083 78.926c-1.288-.816-1.071-2.957-1.071-2.957V45.7a2.627 2.627 0 0 0 .877 1.984c1.436.99 5.19.935 5.3.934L435 37.986V69.06l-18.81 10.618c-.111-.056-3.69.147-5.107-.752zM410.012 44.7v1a6.29 6.29 0 0 1 0-1z" transform="translate(-390 -35.031)" fill="#fff" fill-rule="evenodd"/><path class="cls-3" d="M432 74V40m-3.314-2.214l-16.542 9.024s-.442 1.613.811 2.012c1.578.5 3.879-.65 3.879-.65L433 39.54" transform="translate(-390 -35.031)"/></g></svg>