<svg xmlns="http://www.w3.org/2000/svg" width="17" height="14" viewBox="0 0 17 14">
  <metadata><?xpacket begin="﻿" id="W5M0MpCehiHzreSzNTczkc9d"?>
<x:xmpmeta xmlns:x="adobe:ns:meta/" x:xmptk="Adobe XMP Core 5.6-c138 79.159824, 2016/09/14-01:09:01        ">
   <rdf:RDF xmlns:rdf="http://www.w3.org/1999/02/22-rdf-syntax-ns#">
      <rdf:Description rdf:about=""/>
   </rdf:RDF>
</x:xmpmeta>
                                                                                                    
                                                                                                    
                                                                                                    
                                                                                                    
                                                                                                    
                                                                                                    
                                                                                                    
                                                                                                    
                                                                                                    
                                                                                                    
                                                                                                    
                                                                                                    
                                                                                                    
                                                                                                    
                                                                                                    
                                                                                                    
                                                                                                    
                                                                                                    
                                                                                                    
                                                                                                    
                           
<?xpacket end="w"?></metadata>
<defs>
    <style>
      .cls-1 {
        fill: #555963;
        fill-rule: evenodd;
      }
    </style>
  </defs>
  <path class="cls-1" d="M956,862c0.267,0.637.269,0.79,0,1a9.6,9.6,0,0,1-10,10,7.421,7.421,0,0,1-5-2c0.273,0.444.551,0.461,1,0a4.252,4.252,0,0,0,4-1,3.348,3.348,0,0,1-3-3c0.118,0.535.337,0.556,1,1a4.9,4.9,0,0,0,0-1c-1.115.108-2.317-1.32-2-3-0.317-.049-0.317-0.063,0,0a0.719,0.719,0,0,0,1,0c-0.673-.27-1.289-1.35-1-3a0.894,0.894,0,0,1,0-1c1.9,1.785,4.474,3.191,7,3,0.313,0.08.283-.189,0,0,0.283-2.418,1.843-4,4-4a2.462,2.462,0,0,1,2,1,5.883,5.883,0,0,0,3-1,4.467,4.467,0,0,1-2,2c0.7,0.126,1.374-.062,2,0a3.229,3.229,0,0,1-2,1h0Z" transform="translate(-941 -859)"/>
</svg>
