<svg xmlns="http://www.w3.org/2000/svg" width="24" height="18" viewBox="0 0 24 18">
  <metadata><?xpacket begin="﻿" id="W5M0MpCehiHzreSzNTczkc9d"?>
<x:xmpmeta xmlns:x="adobe:ns:meta/" x:xmptk="Adobe XMP Core 5.6-c138 79.159824, 2016/09/14-01:09:01        ">
   <rdf:RDF xmlns:rdf="http://www.w3.org/1999/02/22-rdf-syntax-ns#">
      <rdf:Description rdf:about=""/>
   </rdf:RDF>
</x:xmpmeta>
                                                                                                    
                                                                                                    
                                                                                                    
                                                                                                    
                                                                                                    
                                                                                                    
                                                                                                    
                                                                                                    
                                                                                                    
                                                                                                    
                                                                                                    
                                                                                                    
                                                                                                    
                                                                                                    
                                                                                                    
                                                                                                    
                                                                                                    
                                                                                                    
                                                                                                    
                                                                                                    
                           
<?xpacket end="w"?></metadata>
<defs>
    <style>
      .cls-1 {
        fill: #555963;
        fill-rule: evenodd;
      }
    </style>
  </defs>
  <path class="cls-1" d="M856,2174a5,5,0,1,1,5-5,4.951,4.951,0,0,1-5,5h0Zm0-8a3,3,0,1,0,3,3,2.946,2.946,0,0,0-3-3h0Zm14,8a5,5,0,1,1,5-5,4.951,4.951,0,0,1-5,5h0Zm0-8a3,3,0,1,0,3,3,2.946,2.946,0,0,0-3-3h0Zm-3.9,3.4a0.909,0.909,0,0,1-.8-0.4,3.255,3.255,0,0,0-2.3-1,2.99,2.99,0,0,0-2.3,1.1,0.992,0.992,0,1,1-1.5-1.3,5.1,5.1,0,0,1,3.8-1.8,4.645,4.645,0,0,1,3.8,1.8,0.966,0.966,0,0,1-.1,1.4,1.421,1.421,0,0,1-.6.2h0Zm-14.1.6a0.945,0.945,0,0,1-1-1c0-3.9.4-13,4-13a2.92,2.92,0,0,1,3,3,1,1,0,0,1-2,0,0.892,0.892,0,0,0-1-1c-0.9,0-2,5.1-2,11a0.945,0.945,0,0,1-1,1h0Zm22,0a0.945,0.945,0,0,1-1-1c0-7.6-1.4-11-2-11a0.933,0.933,0,0,0-1,1,1.075,1.075,0,0,1-1,1h0a1,1,0,0,1-1-1,2.92,2.92,0,0,1,3-3c3.6,0,4,9.1,4,13a0.945,0.945,0,0,1-1,1h0Z" transform="translate(-851 -2156)"/>
</svg>
