<svg xmlns="http://www.w3.org/2000/svg" width="16.1" height="15.969" viewBox="0 0 16.1 15.969">
  <metadata><?xpacket begin="﻿" id="W5M0MpCehiHzreSzNTczkc9d"?>
<x:xmpmeta xmlns:x="adobe:ns:meta/" x:xmptk="Adobe XMP Core 5.6-c138 79.159824, 2016/09/14-01:09:01        ">
   <rdf:RDF xmlns:rdf="http://www.w3.org/1999/02/22-rdf-syntax-ns#">
      <rdf:Description rdf:about=""/>
   </rdf:RDF>
</x:xmpmeta>
                                                                                                    
                                                                                                    
                                                                                                    
                                                                                                    
                                                                                                    
                                                                                                    
                                                                                                    
                                                                                                    
                                                                                                    
                                                                                                    
                                                                                                    
                                                                                                    
                                                                                                    
                                                                                                    
                                                                                                    
                                                                                                    
                                                                                                    
                                                                                                    
                                                                                                    
                                                                                                    
                           
<?xpacket end="w"?></metadata>
<defs>
    <style>
      .cls-1 {
        fill: #fff;
        stroke: #555963;
        stroke-linejoin: round;
        stroke-width: 2px;
        fill-rule: evenodd;
      }
    </style>
  </defs>
  <path class="cls-1" d="M1124,353.233c-0.37.561-1.65,0.567-1.3,1.514l3.12,3.192h0l1.37-1.428h0l-2.19-2.276m-6.28-.594a3.587,3.587,0,0,1-2.6-1.119,3.918,3.918,0,0,1,0-5.4,3.587,3.587,0,0,1,2.6-1.119h0a3.593,3.593,0,0,1,2.61,1.119,3.918,3.918,0,0,1,0,5.4,3.593,3.593,0,0,1-2.61,1.119m0-9.66a5.844,5.844,0,1,0,5.64,5.84,5.737,5.737,0,0,0-5.64-5.84" transform="translate(-1112.09 -342.969)"/>
</svg>
