<svg xmlns="http://www.w3.org/2000/svg" width="17" height="14"><path d="M15 3c.267.637.269.79 0 1A9.6 9.6 0 0 1 5 14a7.421 7.421 0 0 1-5-2c.273.444.551.461 1 0a4.252 4.252 0 0 0 4-1 3.348 3.348 0 0 1-3-3c.118.535.337.556 1 1a4.9 4.9 0 0 0 0-1C1.885 8.108.683 6.68 1 5c-.317-.049-.317-.063 0 0a.719.719 0 0 0 1 0C1.327 4.73.711 3.65 1 2a.894.894 0 0 1 0-1c1.9 1.785 4.474 3.191 7 3 .313.08.283-.189 0 0 .283-2.418 1.843-4 4-4a2.462 2.462 0 0 1 2 1 5.883 5.883 0 0 0 3-1 4.467 4.467 0 0 1-2 2c.7.126 1.374-.062 2 0a3.229 3.229 0 0 1-2 1z" fill="#555963" fill-rule="evenodd"/></svg>