<svg xmlns="http://www.w3.org/2000/svg" width="22" height="19.906"><path d="M19 10.944H4a.943.943 0 0 1-1-1V.989a.943.943 0 0 1 1-1h17a.91.91 0 0 1 .8.4 1.068 1.068 0 0 1 .2.8l-2 8.959a.973.973 0 0 1-1 .8zM5 8.953h13.2l1.6-6.969H5v6.969zM4 1.984H1A1 1 0 1 1 1-.007h3a1 1 0 1 1 0 1.991zm0 0A.985.985 0 0 1 3.3.291a.971.971 0 0 1 1.4 0A1 1 0 0 1 4 1.984zM6 15.92a1.991 1.991 0 1 1-2 1.991 2 2 0 0 1 2-1.99zm11 0a1.991 1.991 0 1 1-2 1.991 2 2 0 0 1 2-1.99zm-13-1a.943.943 0 0 1-1-1V9.948a1 1 0 0 1 2 0v3.982a.943.943 0 0 1-1 1zm15 0H4a1 1 0 1 1 0-1.991h15a1 1 0 1 1 0 1.991z" fill="#555963" fill-rule="evenodd"/></svg>